# xmcd
#
# Track frame offsets:
# 150
# 11780
# 22802
# 33552
# 46052
# 54735
# 65425
# 76417
# 88605
# 97240
# 106917
# 114760
# 126237
# 135512
# 146692
# 156527
# 164385
# 175537
# 186875
# 196017
# 204120
# 213710
# 225300
# 234865
# 246777
# 257107
# 268335
# 276222
# 291617
# 300902
#
# Disc length: 4158 seconds
#
#
# Revision: 0
# Processed by: cddbd v1.5.2PL0 Copyright (c) Steve Scherf et al.
# Submitted via: HACP 1.20
#
DISCID=a4103c1e
DTITLE=Various Artist - Hot Rod Race
DYEAR=1900
DGENRE=
TTITLE0=Arthur Smith - Hot Rod Race
TTITLE1=Everett Gates And The Jokers - Mean Machine
TTITLE2=Ray Greff - The Racing King
TTITLE3=Jack Kitchen With The Rock-A-Billies - Hot Rod Boogie
TTITLE4=Slick Slavin - Speed Crazy
TTITLE5=Bobby Johnston - Flat Tyre
TTITLE6=Roy Tann - Hot Rod Queen
TTITLE7=Dick Grass and the Hoppers - Mr. John Law
TTITLE8=Jim Foster With The Kountry Kut-Ups - Rag Roof Roadster
TTITLE9=The Creeps - Teen-Age Widder
TTITLE10=Bobby Paige and The El Dorados - Little Hot Rod
TTITLE11=Bob Spencer - Roll, Hot Rod, Roll
TTITLE12=The Savoys - Slappin' Rods And Leaky Oil
TTITLE13=Mike Page - Long Black Shiny Car
TTITLE14=The Vibrents - Fuel Injection
TTITLE15=Billy Land - Four Wheels
TTITLE16=Charlie Ryan and the Timberline Riders - Hot Rod Lincoln
TTITLE17=Ramblin' Jimmie Dolan - Hot Rod Race
TTITLE18=Wally George - Drag Strip
TTITLE19=Sammy Masters - Twin Pipes And Pin Stripes
TTITLE20=Vinni Vincent - Wailin' And Scalin'
TTITLE21=Roger Christian - Last Drag
TTITLE22=Charlie Ryan - Hot Rod Race
TTITLE23=Donnie and Diane - Hot Rod Weekend
TTITLE24=Junior Jordan and The Rock-A-Boogie 7 - Down Boy! Down Boy!
TTITLE25=The Duals - Stick Shift
TTITLE26=Ric Lance - No Place To Park
TTITLE27=Larry Faulk - I'm In Hot Rod Heaven In My Old '37
TTITLE28=Buddy White - Unlucky Man
TTITLE29=Harley Gabbard and Aubrey Holt - Hey Baby
EXTD=
EXTT0=
EXTT1=
EXTT2=
EXTT3=
EXTT4=
EXTT5=
EXTT6=
EXTT7=
EXTT8=
EXTT9=
EXTT10=
EXTT11=
EXTT12=
EXTT13=
EXTT14=
EXTT15=
EXTT16=
EXTT17=
EXTT18=
EXTT19=
EXTT20=
EXTT21=
EXTT22=
EXTT23=
EXTT24=
EXTT25=
EXTT26=
EXTT27=
EXTT28=
EXTT29=
PLAYORDER=
